PathFileType	4	(X/Y/Z)	c:/Users/goper/Files/vsCode/490R/osim_files/C15/C15_SSWS_05.trc
DataRate	CameraRate	NumFrames	NumMarkers	Units                	OrigDataRate	OrigDataStartFrame	OrigNumFrames
250.00	250.00	8	36	mm	250.0	1644	2629
                Frame#	Time	LPSIS			LASIS			LTH1			LTH2			LTH3			LTH4			LLFE			LMFE			LSH1			LSH2			LSH3			LSH4			LLMAL			LMMAL			LCAL			LMTP5			LTOE			LMTP1			RPSIS			RASIS			RTH1			RTH2			RTH3			RTH4			RLFE			RMFE			RSH1			RSH2			RSH3			RSH4			RLMAL			RMMAL			RCAL			RMTP1			RTOE			RMTP5		
		X1	Y1	Z1	X2	Y2	Z2	X3	Y3	Z3	X4	Y4	Z4	X5	Y5	Z5	X6	Y6	Z6	X7	Y7	Z7	X8	Y8	Z8	X9	Y9	Z9	X10	Y10	Z10	X11	Y11	Z11	X12	Y12	Z12	X13	Y13	Z13	X14	Y14	Z14	X15	Y15	Z15	X16	Y16	Z16	X17	Y17	Z17	X18	Y18	Z18	X19	Y19	Z19	X20	Y20	Z20	X21	Y21	Z21	X22	Y22	Z22	X23	Y23	Z23	X24	Y24	Z24	X25	Y25	Z25	X26	Y26	Z26	X27	Y27	Z27	X28	Y28	Z28	X29	Y29	Z29	X30	Y30	Z30	X31	Y31	Z31	X32	Y32	Z32	X33	Y33	Z33	X34	Y34	Z34	X35	Y35	Z35	X36	Y36	Z36

1644	6.57200	-696.29901	1023.23541	286.25723	-865.06433	1000.83478	340.18454	-836.68518	608.11310	394.12616	-840.49829	562.62177	375.41101	-885.11200	623.73181	386.56161	-890.02594	579.44208	374.32056	-862.77124	492.31241	352.67615	-850.77728	482.29575	231.71439	-802.29169	384.15479	369.53363	-800.26068	339.45117	372.21915	-862.67896	376.66245	360.34375	-852.96625	333.19000	364.27008	-790.70544	82.80721	303.00272	-805.35199	109.33492	213.59387	-727.33838	61.58843	259.13934	-911.32025	38.80761	319.56430	-966.24292	61.33372	255.35199	-924.59924	33.62318	198.28749	-688.94446	1016.83453	166.09756	-838.75385	989.19604	92.82279	-834.51935	619.10620	33.20225	-843.67249	573.62054	38.09787	-894.37958	627.10620	38.98720	-896.71155	579.38440	40.39877	-868.77277	484.39139	58.79169	-865.28693	464.36237	180.03690	-748.78717	470.67126	50.92102	-714.70325	443.63846	48.56335	-779.83081	414.23468	42.16229	-741.91949	400.33881	40.68683	-520.29004	264.66693	108.80228	-568.08368	245.35075	188.98566	-478.06616	303.22589	164.98978	-558.83124	114.59577	185.34349	-584.48914	97.38237	127.46452	-515.25354	133.08173	78.03256
1645	6.57600	-699.95825	1023.66187	286.49600	-868.74963	1001.24420	340.62357	-838.52600	608.11865	393.98126	-842.05133	562.49347	375.22177	-887.06573	623.49670	386.34268	-891.58435	579.30103	374.19885	-864.02753	492.28119	352.68869	-852.27374	482.21713	231.67334	-803.10437	384.61392	370.35938	-800.89252	339.53503	372.13742	-863.42377	376.54846	360.34158	-853.59949	333.08749	364.22012	-790.73297	82.88807	302.94299	-805.44043	109.38897	213.53683	-727.33740	61.67124	259.08395	-911.33618	38.82994	319.55496	-966.26630	61.27982	255.33455	-924.59924	33.59530	198.24118	-692.81885	1017.50116	166.24127	-842.81506	990.13190	93.15543	-841.48346	620.44855	32.76626	-851.31433	575.02570	37.83464	-901.21393	628.97937	38.80399	-903.91272	581.25977	40.22062	-876.53253	485.98694	58.58821	-873.14099	465.82883	179.85042	-756.58258	471.99994	51.34015	-722.56238	444.81335	49.00512	-787.57251	415.56268	42.53659	-749.99579	401.67911	40.64054	-529.07959	265.00696	108.58447	-577.10651	245.36763	188.68140	-487.02444	302.55954	165.17322	-568.63239	114.45308	183.72786	-594.72510	97.68700	125.91990	-525.39233	133.83284	76.45523
1646	6.58000	-703.70166	1024.04358	286.66949	-872.58411	1001.62781	341.04633	-840.39758	608.11151	393.88559	-843.70905	562.40015	375.07678	-888.93793	623.35413	386.38803	-893.40808	578.90363	373.78101	-865.22876	492.21219	352.64319	-853.60236	482.30182	231.81053	-804.00610	384.67215	370.33539	-801.68469	339.56842	372.17557	-864.40106	376.45721	360.44913	-854.39581	332.97910	364.21686	-790.80908	82.93890	302.90207	-805.52429	109.43497	213.51225	-727.40942	61.69946	259.08099	-911.33105	38.81739	319.55295	-966.28973	61.21918	255.32716	-924.64490	33.54625	198.23303	-696.70703	1018.04517	166.42213	-846.91803	991.05206	93.49607	-848.35406	621.84296	32.37167	-858.54138	576.29083	37.42627	-908.07690	630.84021	38.70048	-911.04095	583.14563	40.04523	-884.28864	487.62894	58.36232	-880.97583	467.41855	179.71574	-764.38690	473.17917	51.80710	-730.48724	445.84265	49.40089	-795.38049	416.71317	42.89991	-758.17444	402.83133	40.62584	-538.03912	265.05450	108.36176	-586.28302	245.12032	188.23903	-495.69949	301.96918	165.23738	-578.61975	114.14492	182.14174	-605.02441	98.15564	124.36763	-535.58881	134.38341	74.93578
1647	6.58400	-707.60590	1024.34363	286.80695	-876.16345	1001.97388	341.42480	-842.23065	608.14551	393.80356	-845.42151	562.28058	375.02606	-890.73541	623.08618	386.24146	-895.08759	578.90070	374.12009	-866.58093	492.04623	352.70151	-854.90869	482.17804	231.84732	-805.10236	384.69540	370.47943	-802.58728	339.62930	372.31393	-865.31824	376.28632	360.48703	-855.19531	332.87170	364.26913	-790.95404	82.99468	302.90775	-805.61115	109.46542	213.51189	-727.42438	61.73420	259.05908	-911.35077	38.80580	319.55640	-966.32745	61.16545	255.34377	-924.67303	33.51979	198.22861	-700.61017	1018.67944	166.59296	-850.95178	991.93958	93.82867	-855.09064	623.28516	31.93435	-865.76935	577.92804	37.13847	-914.76398	632.68091	38.51251	-918.17792	585.02777	39.90418	-892.07684	489.25674	58.16188	-888.70862	469.07199	179.56558	-772.16125	474.22760	52.25115	-738.34515	446.74118	49.83625	-803.02985	417.79626	43.32176	-766.39050	403.92950	40.59547	-547.16455	264.94278	108.02511	-595.25336	244.87604	187.80963	-504.37982	301.06476	165.40060	-588.69598	113.69493	180.65529	-615.31647	98.66109	122.66309	-546.07257	134.72148	73.47832
1648	6.58800	-711.37268	1024.66260	287.01196	-879.85022	1002.31238	341.80939	-844.12323	608.10193	393.76868	-847.04144	562.16107	375.00156	-892.73773	622.88965	386.33731	-896.68073	578.75616	374.29501	-867.82678	491.99057	352.77728	-856.20569	482.00122	231.88432	-806.18573	384.68878	370.63455	-803.59125	339.67905	372.49921	-866.12427	376.44141	360.55588	-856.15460	332.77374	364.33997	-791.11719	83.02288	302.92484	-805.68219	109.54413	213.51004	-727.48596	61.76460	259.07874	-911.42291	38.77951	319.57840	-966.38513	61.09842	255.34517	-924.69806	33.48208	198.20462	-704.54712	1019.25488	166.76857	-854.91260	992.84003	94.14640	-861.78217	624.79156	31.47332	-872.91742	579.38440	36.76573	-921.51178	634.56525	38.44460	-925.26135	586.91321	39.80601	-899.73358	490.90848	58.00584	-896.35010	470.74179	179.49275	-779.88843	475.16351	52.67614	-746.29211	447.41711	50.16037	-810.87030	418.62695	43.72162	-774.52673	404.89557	40.56960	-556.30865	264.63980	107.65909	-604.49078	244.39177	187.52849	-512.80157	300.03857	165.76778	-599.12909	113.08839	179.21646	-626.07526	98.22746	121.52602	-556.68188	134.79887	72.03809
1649	6.59200	-715.06866	1024.98047	287.18753	-883.44604	1002.63300	342.19760	-845.91473	608.10944	393.71741	-848.77032	562.01746	374.97189	-894.65295	622.72766	386.33917	-898.46930	578.17401	374.17374	-869.14044	491.95538	352.88965	-857.21045	481.72171	231.70407	-807.35657	384.67038	370.84671	-804.66589	339.69296	372.68518	-867.24731	376.16190	360.58682	-857.15955	332.63818	364.29214	-791.24561	83.05811	302.95331	-805.82312	109.62225	213.45692	-727.58954	61.76470	259.05194	-911.46521	38.86947	319.71146	-966.42090	61.02932	255.38377	-924.70294	33.45939	198.21016	-708.53851	1019.78003	166.89624	-858.97095	993.75983	94.44411	-868.53400	626.21344	31.09230	-879.94238	580.99664	36.39479	-928.19299	636.42487	38.34576	-932.31537	588.79468	39.70607	-907.37390	492.52490	57.91696	-903.95807	472.40292	179.36481	-787.55084	476.03583	53.05975	-754.19824	448.04987	50.54867	-818.52655	419.46097	44.04978	-782.67072	405.78729	40.51544	-565.49292	264.08145	107.24542	-613.93811	243.80232	187.09279	-522.35419	298.16492	164.81819	-609.71967	112.43348	177.80046	-637.03247	98.53756	119.87344	-567.38190	134.77875	70.68228
1650	6.59600	-719.01648	1025.24915	287.26187	-887.01196	1002.92310	342.54202	-847.76819	608.14392	393.73364	-850.40448	561.97687	375.00464	-896.52924	622.55426	386.32266	-900.16992	578.11584	374.42941	-870.51459	491.81631	352.90903	-858.42847	481.62326	231.79213	-809.01868	384.79333	372.00412	-805.73029	339.71140	372.90253	-868.41632	375.71292	360.50552	-858.09131	332.55649	364.29987	-791.37347	83.09574	303.00397	-805.61804	109.48324	213.65063	-727.62524	61.81870	259.06351	-911.49152	38.84873	319.74588	-966.46777	60.96134	255.38045	-924.69843	33.43365	198.20514	-712.41388	1020.34637	167.01933	-862.95850	994.60559	94.73601	-875.37744	627.74127	30.74829	-886.97095	582.43707	36.05880	-934.70459	638.34741	38.07869	-939.27966	590.76038	39.56395	-914.94965	494.14786	57.75510	-911.59344	474.01974	179.24896	-795.20782	476.74075	53.41731	-762.13202	448.54028	50.85418	-826.16956	420.17432	44.37218	-791.00037	406.56628	40.46311	-574.79767	263.32080	106.87350	-623.33783	242.93324	186.58943	-531.17908	296.61499	164.68169	-620.53430	111.60073	176.43484	-647.73785	98.60104	118.51814	-578.37402	134.36014	69.33092
1651	6.60000	-722.67566	1025.56042	287.36633	-890.75018	1003.26709	342.82175	-849.50140	608.20593	393.70566	-851.93152	561.85065	375.00156	-898.21948	622.42761	386.32913	-901.59271	577.93060	374.61078	-871.86249	491.72882	352.97696	-859.55908	481.54337	231.83990	-809.58539	384.58212	371.33914	-806.81738	339.76370	373.06683	-869.47968	375.93411	360.51697	-859.22583	332.50974	364.32901	-791.47693	83.14799	303.02649	-805.70117	109.56821	213.65288	-727.66449	61.87159	259.02817	-911.49219	38.71120	319.62906	-966.50659	60.90929	255.39052	-924.75153	33.41095	198.20146	-716.30640	1020.86169	167.11934	-866.87097	995.42944	95.01611	-882.02509	629.18384	30.38726	-893.57654	584.03815	35.52108	-941.25806	640.26257	38.02583	-946.16388	592.63800	39.48520	-922.43414	495.79138	57.62500	-919.00238	475.71283	179.16147	-802.87091	477.43347	53.72823	-769.91071	448.92950	51.03591	-833.92511	420.79895	44.67748	-799.15747	407.25687	40.37848	-584.19916	262.33777	106.44044	-632.66687	242.01485	186.23096	-540.16290	294.70938	164.40033	-631.51166	110.65769	175.07632	-658.98419	98.46768	117.19687	-589.42548	133.85457	68.06166
